<svg xmlns="http://www.w3.org/2000/svg" width="1066.667" height="1066.667" preserveAspectRatio="xMidYMid meet" version="1.0" viewBox="0 0 800 800"><metadata>Created by potrace 1.14, written by Peter Selinger 2001-2017</metadata><g fill="#000" stroke="none"><path d="M3958 7990 c-19 -12 -57 -129 -84 -260 -2 -14 -8 -34 -11 -45 -4 -11 -8 -24 -9 -30 -1 -8 -116 -463 -325 -1288 -22 -87 -42 -166 -44 -175 -7 -35 -87 -348 -96 -377 -5 -16 -20 -77 -34 -135 -14 -57 -28 -106 -30 -108 -2 -3 -26 9 -52 26 -26 17 -64 39 -83 50 -19 11 -195 115 -390 232 -195 117 -364 218 -375 224 -49 27 -773 460 -795 475 -14 10 -52 33 -85 52 -33 19 -67 39 -76 44 -48 30 -100 55 -113 55 -44 0 -86 -43 -86 -89 0 -9 32 -71 71 -137 39 -65 79 -132 89 -149 9 -16 98 -165 196 -330 160 -267 350 -586 395 -663 9 -15 105 -175 213 -356 108 -181 194 -331 192 -334 -4 -4 -63 -19 -139 -37 -10 -2 -27 -7 -37 -10 -10 -3 -27 -7 -37 -9 -10 -2 -38 -9 -63 -16 -25 -7 -56 -14 -70 -16 -14 -3 -38 -9 -55 -14 -22 -7 -670 -170 -775 -196 -15 -3 -321 -81 -352 -89 -10 -3 -28 -7 -40 -10 -23 -5 -312 -78 -575 -146 -84 -21 -167 -41 -184 -44 -17 -3 -44 -12 -60 -21 -51 -26 -51 -102 -1 -128 20 -10 526 -143 652 -171 47 -10 710 -177 735 -185 41 -13 354 -91 385 -96 14 -3 48 -11 75 -19 43 -12 356 -92 498 -126 26 -6 47 -14 45 -18 -2 -5 -82 -138 -138 -231 -5 -8 -41 -69 -80 -135 -85 -144 -78 -133 -131 -220 -61 -101 -379 -635 -398 -667 -9 -16 -85 -144 -170 -285 -220 -366 -241 -404 -241 -433 0 -32 31 -67 66 -76 31 -8 49 1 231 111 73 44 141 85 151 90 9 6 33 20 52 31 19 12 175 104 345 206 171 102 512 305 758 452 247 148 449 266 451 265 3 -5 36 -122 41 -147 2 -9 11 -46 20 -82 9 -36 18 -72 20 -80 2 -8 11 -44 20 -80 9 -36 19 -72 20 -80 2 -8 56 -222 120 -475 64 -253 118 -467 120 -475 2 -8 58 -231 124 -495 129 -507 131 -515 188 -515 45 0 62 18 82 88 16 52 108 414 126 492 2 8 56 222 120 475 64 253 118 467 120 475 2 8 38 150 80 315 42 165 80 316 85 335 4 19 18 73 30 120 12 47 24 95 27 108 3 12 7 22 8 22 2 0 207 -122 457 -271 249 -150 467 -280 483 -289 24 -14 374 -222 435 -259 213 -128 531 -319 549 -328 13 -7 36 -13 51 -13 46 0 87 53 75 98 -3 14 -75 141 -159 282 -577 964 -692 1157 -698 1173 -4 10 -19 33 -33 51 -14 18 -25 36 -25 39 0 3 -36 65 -80 138 -44 72 -80 133 -80 135 0 3 -19 34 -41 70 -23 36 -39 67 -37 69 2 2 40 13 84 24 99 24 1804 454 1934 487 52 14 102 27 110 29 201 49 265 67 276 76 17 14 27 63 19 89 -3 11 -15 25 -26 30 -15 9 -198 59 -269 75 -8 1 -35 8 -60 15 -25 7 -53 14 -62 16 -39 9 -58 13 -178 44 -69 18 -132 33 -140 35 -8 2 -312 79 -675 170 -363 92 -667 168 -677 170 -31 6 -333 87 -336 90 -1 1 91 159 206 351 114 192 329 552 477 799 222 372 351 589 442 740 41 69 42 97 4 136 -33 32 -58 36 -101 14 -27 -14 -918 -544 -950 -565 -8 -5 -31 -19 -50 -30 -19 -11 -50 -29 -68 -40 -78 -47 -608 -364 -726 -434 -71 -42 -130 -76 -131 -74 -3 3 -34 118 -40 148 -2 8 -11 44 -20 80 -9 36 -18 72 -20 80 -2 8 -44 175 -94 370 -170 670 -282 1115 -286 1130 -40 178 -149 588 -159 598 -17 17 -77 25 -98 12z" transform="translate(0.000000,800.000000) scale(0.100000,-0.100000)"/></g></svg>