<svg xmlns="http://www.w3.org/2000/svg" xmlns:xlink="http://www.w3.org/1999/xlink" id="图层_1" x="0" y="0" version="1.1" viewBox="0 0 1139.1 361.8" xml:space="preserve" style="enable-background:new 0 0 1139.1 361.8"><style type="text/css">.st0{fill:#fff}.st1{fill:#e8c385}.st2{enable-background:new}</style><path d="M205.5,246.3c-0.1,0-0.3,0-0.4,0.1C205.2,246.4,205.4,246.4,205.5,246.3z" class="st0"/><path d="M204.5,246.3c-0.2,0-0.3-0.1-0.5-0.2C204.2,246.2,204.3,246.3,204.5,246.3z" class="st0"/><path d="M205,246.4c-0.2,0-0.3,0-0.4-0.1C204.7,246.4,204.8,246.4,205,246.4z" class="st0"/><path d="M206,246.1c-0.1,0.1-0.3,0.1-0.4,0.2C205.7,246.3,205.9,246.2,206,246.1z" class="st0"/><path d="M79.1,246.1c-0.1,0.1-0.3,0.2-0.5,0.2C78.8,246.3,78.9,246.2,79.1,246.1z" class="st0"/><path d="M78,246.4c-0.1,0-0.3,0-0.4-0.1C77.7,246.4,77.9,246.4,78,246.4z" class="st0"/><path d="M77.5,246.3c-0.1,0-0.3-0.1-0.4-0.2C77.2,246.2,77.3,246.3,77.5,246.3z" class="st0"/><path d="M78.5,246.3c-0.1,0-0.3,0.1-0.4,0.1C78.2,246.4,78.4,246.4,78.5,246.3z" class="st0"/><path d="M206.4,245.8c-0.1,0.1-0.2,0.2-0.3,0.3C206.2,246,206.3,245.9,206.4,245.8z" class="st0"/><path d="M206.7,245.5c-0.1,0.1-0.2,0.2-0.3,0.4C206.5,245.7,206.6,245.6,206.7,245.5z" class="st0"/><path d="M207,245c0,0.1-0.1,0.3-0.2,0.4C206.9,245.3,207,245.1,207,245z" class="st0"/><path d="M207,117.9c0,0.2-0.1,0.3-0.2,0.5C206.9,118.3,207,118.1,207,117.9z" class="st0"/><path d="M207,244.5c0,0.1,0,0.3-0.1,0.4C207,244.8,207,244.6,207,244.5z" class="st0"/><path d="M76.3,245.4c-0.1-0.1-0.1-0.3-0.2-0.4C76.2,245.1,76.2,245.3,76.3,245.4z" class="st0"/><path d="M76,117.3c0-0.1,0-0.3,0.1-0.4C76,117,76,117.1,76,117.3z" class="st0"/><path d="M76.1,117.8c0-0.2,0-0.3,0-0.5C76.1,117.5,76.1,117.7,76.1,117.8z" class="st0"/><path d="M77.1,115.6c0.1-0.1,0.3-0.1,0.4-0.2C77.3,115.5,77.2,115.6,77.1,115.6z" class="st0"/><path d="M76.7,116c0.1-0.1,0.2-0.2,0.3-0.3C76.9,115.8,76.8,115.9,76.7,116z" class="st0"/><path d="M76.4,116.3c0.1-0.1,0.2-0.2,0.3-0.3C76.5,116.1,76.4,116.2,76.4,116.3z" class="st0"/><path d="M76.1,116.8c0-0.1,0.1-0.3,0.2-0.4C76.2,116.5,76.2,116.7,76.1,116.8z" class="st0"/><path d="M76.6,245.8c-0.1-0.1-0.2-0.2-0.3-0.4C76.4,245.6,76.5,245.7,76.6,245.8z" class="st0"/><path d="M207,244c0,0.2,0.1,0.3,0.1,0.5C207.1,244.3,207,244.2,207,244z" class="st0"/><path d="M76.1,244.9c0-0.1-0.1-0.3-0.1-0.4C76,244.6,76.1,244.8,76.1,244.9z" class="st0"/><path d="M76,244.4c0-0.2,0-0.3,0-0.5C76,244.1,76,244.3,76,244.4z" class="st0"/><path d="M205.1,115.4c0.1,0,0.3,0,0.4,0.1C205.4,115.4,205.2,115.4,205.1,115.4z" class="st0"/><path d="M206.1,115.7c0.1,0.1,0.2,0.2,0.3,0.3C206.3,115.8,206.2,115.8,206.1,115.7z" class="st0"/><path d="M206.4,116c0.1,0.1,0.2,0.2,0.3,0.3C206.6,116.2,206.5,116.1,206.4,116z" class="st0"/><path d="M77.6,115.4c0.1,0,0.3-0.1,0.4-0.1C77.9,115.4,77.7,115.4,77.6,115.4z" class="st0"/><path d="M207,116.9c0,0.1,0.1,0.3,0.1,0.4C207.1,117.1,207,117,207,116.9z" class="st0"/><path d="M206.8,116.4c0.1,0.1,0.1,0.3,0.2,0.4C206.9,116.7,206.8,116.5,206.8,116.4z" class="st0"/><path d="M78.1,115.4c0.2,0,0.3,0,0.4,0.1C78.4,115.4,78.2,115.4,78.1,115.4z" class="st0"/><path d="M77,246.1c-0.1-0.1-0.2-0.2-0.3-0.3C76.8,245.9,76.9,246,77,246.1z" class="st0"/><path d="M204.6,115.4c0.1,0,0.3-0.1,0.4-0.1C204.9,115.4,204.7,115.4,204.6,115.4z" class="st0"/><path d="M207.1,117.4c0,0.2,0,0.3-0.1,0.5C207,117.7,207,117.5,207.1,117.4z" class="st0"/><path d="M205.6,115.5c0.1,0,0.3,0.1,0.4,0.2C205.9,115.6,205.7,115.5,205.6,115.5z" class="st0"/><path d="M125.4,143.4L125.4,143.4l-46.3-27.7c-0.1-0.1-0.3-0.2-0.5-0.2c0.2,0,0.3,0.1,0.5,0.2L125.4,143.4z" class="st0"/><path d="M104,197L104,197l-27.7,46.4c-0.1,0.2-0.2,0.3-0.2,0.5c0.1-0.2,0.1-0.3,0.2-0.5L104,197z" class="st0"/><path d="M204,115.7c0.1-0.1,0.3-0.2,0.5-0.2C204.3,115.5,204.1,115.6,204,115.7l-46.3,27.7l0,0L204,115.7z" class="st0"/><path d="M76.3,118.4c-0.1-0.2-0.2-0.3-0.2-0.5C76.2,118.1,76.2,118.3,76.3,118.4l27.7,46.3l0,0L76.3,118.4z" class="st0"/><path d="M206.8,243.4c0.1,0.2,0.2,0.3,0.2,0.5C206.9,243.7,206.8,243.5,206.8,243.4z" class="st0"/><path d="M207,116.8C207,116.8,207,116.8,207,116.8C207,116.9,207,116.8,207,116.8z" class="st1"/><path d="M206.4,116L206.4,116z" class="st1"/><path d="M207,117.8L207,117.8L207,117.8z" class="st1"/><path d="M206.7,116.3L206.7,116.3L206.7,116.3z" class="st1"/><path d="M207,117.3C207,117.3,207,117.3,207,117.3C207,117.4,207,117.3,207,117.3z" class="st1"/><path d="M77.1,246.1L77.1,246.1L77.1,246.1z" class="st1"/><path d="M77.6,246.3L77.6,246.3L77.6,246.3z" class="st1"/><path d="M206.1,246.1L206.1,246.1L206.1,246.1z" class="st1"/><path d="M206.4,245.8L206.4,245.8z" class="st1"/><path d="M206.8,245.4C206.8,245.4,206.7,245.4,206.8,245.4C206.7,245.4,206.8,245.4,206.8,245.4z" class="st1"/><path d="M205.6,246.3L205.6,246.3L205.6,246.3z" class="st1"/><polygon points="179.1 164.8 179.1 164.8 206.8 118.4 206.8 118.4 206.8 118.4" class="st1"/><path d="M78,246.4L78,246.4z" class="st1"/><path d="M78.6,246.3h-0.1H78.6z" class="st1"/><path d="M204.6,246.3h-0.1H204.6z" class="st1"/><path d="M76.1,117.9L76.1,117.9L76.1,117.9z" class="st1"/><path d="M76.1,244v-0.1V244z" class="st1"/><path d="M76,117.4L76,117.4z" class="st1"/><path d="M76.1,116.9C76.1,116.9,76.1,116.8,76.1,116.9C76.1,116.8,76.1,116.9,76.1,116.9z" class="st1"/><path d="M76.4,245.5C76.4,245.4,76.4,245.4,76.4,245.5C76.4,245.4,76.4,245.4,76.4,245.5z" class="st1"/><path d="M76,244.5L76,244.5z" class="st1"/><path d="M206,115.6L206,115.6L206,115.6z" class="st1"/><path d="M76.7,245.8L76.7,245.8z" class="st1"/><path d="M76.1,245C76.1,245,76.1,245,76.1,245C76.1,245,76.1,245,76.1,245z" class="st1"/><path d="M76.3,116.4C76.3,116.4,76.3,116.3,76.3,116.4C76.3,116.3,76.3,116.4,76.3,116.4z" class="st1"/><path d="M205,115.4L205,115.4z" class="st1"/><path d="M204.5,115.5h0.1H204.5z" class="st1"/><path d="M78.5,115.4h0.1H78.5z" class="st1"/><path d="M205.5,115.4L205.5,115.4L205.5,115.4z" class="st1"/><path d="M77,115.7L77,115.7L77,115.7z" class="st1"/><path d="M76.6,116L76.6,116z" class="st1"/><path d="M78,115.4L78,115.4z" class="st1"/><path d="M77.5,115.5L77.5,115.5L77.5,115.5z" class="st1"/><path d="M205,246.4L205,246.4z" class="st1"/><path d="M207,244.9C207,244.9,207,245,207,244.9C207,245,207,244.9,207,244.9z" class="st1"/><path d="M207,243.9v0.1V243.9z" class="st1"/><path d="M207.1,244.4C207.1,244.4,207.1,244.5,207.1,244.4C207.1,244.5,207.1,244.4,207.1,244.4z" class="st1"/><path d="M104,164.8l6.1-1.5l-19.4-32.5l-5.6-5.6c-0.2-0.2-0.2-0.5,0-0.7c0.2-0.2,0.5-0.2,0.7,0c0,0,0,0,0,0l5.6,5.6	l32.5,19.4l1.5-6.1l-46.3-27.7c-0.1-0.1-0.3-0.2-0.5-0.2h-0.1c-0.1,0-0.3-0.1-0.4-0.1l0,0c-0.1,0-0.3,0-0.4,0.1h-0.1	c-0.1,0-0.3,0.1-0.4,0.2h-0.1c-0.1,0.1-0.2,0.2-0.3,0.3l0,0c-0.1,0.1-0.2,0.2-0.3,0.3c0,0,0,0.1,0,0.1c-0.1,0.1-0.1,0.3-0.2,0.4	c0,0,0,0,0,0.1c0,0.1-0.1,0.3-0.1,0.4v0.1c0,0.2,0,0.3,0,0.5v0.1c0,0.2,0.1,0.3,0.2,0.5L104,164.8z" class="st1"/><path d="M157.7,143.4l1.5,6.1l32.5-19.4l4.5-4.6c0.2-0.2,0.5-0.2,0.7,0c0.2,0.2,0.2,0.5,0,0.7l-4.6,4.5L173,163.2	l6.1,1.5l27.7-46.3l0,0c0.1-0.2,0.2-0.3,0.2-0.5v-0.1c0-0.2,0.1-0.3,0.1-0.5c0,0,0-0.1,0-0.1c0-0.1,0-0.3-0.1-0.4c0,0,0,0,0-0.1	c0-0.1-0.1-0.3-0.2-0.4l-0.1-0.1c-0.1-0.1-0.2-0.2-0.3-0.3l0,0c-0.1-0.1-0.2-0.2-0.3-0.3H206c-0.1-0.1-0.3-0.1-0.4-0.2h-0.1	c-0.1,0-0.3-0.1-0.4-0.1l0,0c-0.2,0-0.3,0-0.4,0.1h-0.1c-0.2,0-0.3,0.1-0.5,0.2L157.7,143.4z" class="st1"/><path d="M192.4,231.1l5.6,5.6c0.2,0.2,0.2,0.5,0,0.7c-0.1,0.1-0.2,0.1-0.4,0.1c-0.1,0-0.3-0.1-0.4-0.1l-5.6-5.6	l-32.5-19.4l-1.5,6.1l46.3,27.7c0.1,0.1,0.3,0.2,0.5,0.2h0.1c0.1,0,0.3,0.1,0.4,0.1h0.1c0.1,0,0.3,0,0.4-0.1h0.1	c0.1,0,0.3-0.1,0.4-0.2h0.1c0.1-0.1,0.2-0.2,0.3-0.3l0,0c0.1-0.1,0.2-0.2,0.3-0.4c0,0,0-0.1,0.1-0.1c0.1-0.1,0.1-0.3,0.2-0.4	c0,0,0,0,0-0.1c0-0.1,0.1-0.3,0.1-0.4c0,0,0-0.1,0-0.1c0-0.2,0-0.3,0-0.5v-0.1c-0.1-0.2-0.1-0.3-0.2-0.5L179.1,197l-6.1,1.6	L192.4,231.1z" class="st1"/><path d="M91.4,231.8l-4.5,4.5c-0.1,0.1-0.2,0.1-0.3,0.1c-0.1,0-0.3-0.1-0.4-0.1c-0.2-0.2-0.2-0.5,0-0.7l4.6-4.5	l19.4-32.5L104,197l-27.7,46.4c-0.1,0.2-0.2,0.3-0.2,0.5v0.1c0,0.2,0,0.3,0,0.5v0.1c0,0.1,0,0.3,0.1,0.4c0,0,0,0,0,0.1	c0,0.1,0.1,0.3,0.2,0.4c0,0,0,0.1,0,0.1c0.1,0.1,0.2,0.2,0.3,0.4l0,0c0.1,0.1,0.2,0.2,0.3,0.3h0.1c0.1,0.1,0.3,0.1,0.4,0.2h0.1	c0.1,0,0.3,0.1,0.4,0.1l0,0c0.2,0,0.3,0,0.4-0.1h0.1c0.2,0,0.3-0.1,0.5-0.2l46.3-27.7l-1.5-6.1L91.4,231.8z" class="st1"/><polygon points="121.1 160.4 121.2 159.9 91.4 130 89.6 129 90.7 130.7 120.5 160.6" class="st1"/><polygon points="162 201.3 161.8 201.9 191.7 231.8 193.5 232.8 192.4 231.1 162.6 201.2" class="st1"/><path d="M91.4,130l-5.6-5.6c-0.2-0.2-0.5-0.2-0.7,0c0,0,0,0,0,0c-0.2,0.2-0.2,0.5,0,0.7l5.6,5.6l-1-1.8L91.4,130z" class="st1"/><path d="M191.7,231.8l5.6,5.6c0.1,0.1,0.2,0.1,0.4,0.1c0.1,0,0.3-0.1,0.4-0.1c0.2-0.2,0.2-0.5,0-0.7l-5.6-5.6l1.1,1.8	L191.7,231.8z" class="st1"/><polygon points="121.1 201.3 120.5 201.2 90.7 231.1 89.6 232.8 91.4 231.8 121.2 201.9" class="st1"/><polygon points="162 160.4 162.6 160.6 192.4 130.7 193.5 129 191.7 130 161.8 159.9" class="st1"/><path d="M192.4,130.7l4.6-4.6c0.2-0.2,0.2-0.5,0-0.7c-0.2-0.2-0.5-0.2-0.7,0l0,0l-4.5,4.5l1.8-1L192.4,130.7z" class="st1"/><path d="M90.7,231.1l-4.6,4.5c-0.2,0.2-0.2,0.5,0,0.7c0.1,0.1,0.2,0.1,0.4,0.1c0.1,0,0.3-0.1,0.3-0.1l4.5-4.5l-1.8,1	L90.7,231.1z" class="st1"/><path d="M143.3,275.5c-0.1,0.4-0.3,0.8-0.7,1C142.9,276.3,143.2,275.9,143.3,275.5z" class="st0"/><path d="M139.8,86.3c0.2-0.8,0.9-1.4,1.7-1.3C140.7,84.9,140,85.5,139.8,86.3l-14.4,57.1l0,0L139.8,86.3z" class="st0"/><path d="M140.5,276.5c-0.3-0.2-0.6-0.6-0.7-1C139.9,275.9,140.1,276.3,140.5,276.5z" class="st0"/><path d="M143.3,86.3l14.4,57.1l0,0L143.3,86.3c-0.1-0.6-0.6-1.1-1.2-1.3C142.7,85.2,143.1,85.7,143.3,86.3z" class="st0"/><polygon points="121.2 159.9 123.9 149.4 123.9 149.4" class="st0"/><rect width="0" height="10.8" x="160.5" y="149.3" class="st0"/><rect width="0" height="6.3" x="158.4" y="143.3" class="st0"/><rect width="0" height="6.3" x="124.7" y="143.3" class="st0"/><polygon points="121.2 159.9 121.1 160.4 121.2 159.9" class="st0"/><polygon points="161.8 159.9 161.8 159.9 162 160.4" class="st0"/><path d="M142.6,276.5c-0.3,0.2-0.7,0.3-1.1,0.3C141.9,276.9,142.3,276.7,142.6,276.5z" class="st1"/><path d="M179.1,197L179.1,197l57.1-14.4c0.2-0.1,0.4-0.1,0.6-0.3c-0.2,0.1-0.4,0.2-0.6,0.3L179.1,197z" class="st1"/><path d="M141.5,276.9c-0.4,0-0.8-0.1-1.1-0.3C140.8,276.7,141.2,276.9,141.5,276.9z" class="st1"/><path d="M236.1,179.2c0.2,0,0.4,0.1,0.6,0.3C236.6,179.3,236.4,179.2,236.1,179.2l-57.1-14.4l0,0L236.1,179.2z" class="st1"/><path d="M236.7,182.4c0.5-0.3,0.8-0.9,0.8-1.5C237.5,181.5,237.2,182,236.7,182.4z" class="st1"/><path d="M237.5,180.9c0-0.6-0.3-1.1-0.8-1.5C237.2,179.8,237.5,180.3,237.5,180.9z" class="st1"/><rect width="0" height="10.8" x="167.8" y="156.5" class="st1"/><polygon points="162.5 201.2 173 198.6 173 198.6" class="st1"/><rect width="0" height="6.3" x="176" y="194.7" class="st1"/><rect width="0" height="6.3" x="176" y="160.9" class="st1"/><polygon points="162.6 201.2 162.6 201.2 162 201.3" class="st1"/><polygon points="162.6 160.6 162 160.4 162.6 160.6" class="st1"/><path d="M139.8,86.3l-14.4,57.1l5.4,3.2l10.2-40.7V103c0-0.3,0.2-0.5,0.5-0.5s0.5,0.2,0.5,0.5v2.9l10.2,40.6l5.4-3.2	l-14.4-57.1c-0.1-0.6-0.6-1.1-1.2-1.3c-0.2-0.1-0.4-0.1-0.6-0.1C140.7,84.9,140,85.5,139.8,86.3z" class="st1"/><path d="M237.5,180.9c0-0.6-0.3-1.1-0.8-1.5c-0.2-0.1-0.4-0.2-0.6-0.3l-57.1-14.4l-3.2,5.4l40.6,10.2h4.4	c0.3,0,0.5,0.2,0.5,0.5c0,0.3-0.2,0.5-0.5,0.5h-4.4l-40.6,10.2l3.2,5.4l57.1-14.4c0.2-0.1,0.4-0.1,0.6-0.3	C237.2,182,237.5,181.5,237.5,180.9z" class="st1"/><path d="M66.6,181.4h-4.4c-0.3,0-0.5-0.2-0.5-0.5s0.2-0.5,0.5-0.5h4.4l40.6-10.2l-3.2-5.4l-57.1,14.4	c-1,0.2-1.5,1.2-1.3,2.2c0.2,0.6,0.7,1.1,1.3,1.3L104,197l3.2-5.4L66.6,181.4z" class="st1"/><path d="M142,255.9v2.9c0,0.3-0.2,0.5-0.5,0.5s-0.5-0.2-0.5-0.5v-2.9l-10.2-40.6l-5.4,3.2l14.4,57.1	c0.1,0.4,0.3,0.8,0.7,1c0.3,0.2,0.7,0.3,1.1,0.3c0.4,0,0.8-0.1,1.1-0.3c0.3-0.2,0.6-0.6,0.7-1l14.4-57.1l-5.4-3.2L142,255.9z" class="st1"/><polygon points="160.5 195.5 157.6 196.2 162.6 201.2 173 198.6 169.8 193.2" class="st1"/><rect width="0" height="6.3" x="105.6" y="191.2" class="st1"/><polygon points="156.9 197 156.2 199.9 153.8 209.1 159.2 212.4 161.8 201.9" class="st1"/><polygon points="125.5 196.2 122.6 195.5 113.3 193.2 110.1 198.6 120.5 201.2" class="st1"/><polygon points="156.9 164.8 161.8 159.9 159.2 149.4 153.8 152.6 156.2 161.9" class="st1"/><polygon points="151.9 145 158.1 145 158.1 145" class="st1"/><rect width="0" height="6.3" x="128.1" y="141.8" class="st1"/><polygon points="160.5 166.3 169.8 168.6 173 163.2 162.6 160.6 157.6 165.5" class="st1"/><polygon points="126.9 161.9 129.3 152.6 123.9 149.4 121.2 159.9 126.2 164.8" class="st1"/><rect width="0" height="6.3" x="105.6" y="164.3" class="st1"/><polygon points="122.6 166.3 125.5 165.5 120.5 160.6 110.1 163.2 113.3 168.6" class="st1"/><polygon points="126.2 197 121.2 201.9 123.9 212.4 129.3 209.1 126.9 199.9" class="st1"/><rect width="0" height="6.3" x="177.5" y="164.3" class="st1"/><polygon points="153.8 209.1 152.3 215.2 157.7 218.4 159.2 212.4" class="st1"/><polygon points="153.8 152.6 159.2 149.4 157.7 143.4 152.3 146.6" class="st1"/><polygon points="129.3 152.6 130.8 146.6 125.4 143.4 123.9 149.4" class="st1"/><polygon points="173 198.6 179.1 197 175.9 191.6 169.8 193.2" class="st1"/><polygon points="110.1 163.2 104 164.8 107.2 170.1 113.3 168.6" class="st1"/><polygon points="129.3 209.1 123.9 212.4 125.4 218.4 130.8 215.2" class="st1"/><polygon points="107.2 191.6 104 197 110.1 198.6 113.3 193.2" class="st1"/><polygon points="169.8 168.6 175.9 170.1 179.1 164.8 173 163.2" class="st1"/><polygon points="126.2 164.8 121.2 159.9 121.1 160.4 120.5 160.6 125.5 165.5 126 165.4" class="st1"/><polygon points="156.9 197 161.8 201.9 162 201.3 162.6 201.2 157.6 196.2 157 196.4" class="st1"/><polygon points="125.5 196.2 120.5 201.2 121.1 201.3 121.2 201.9 126.2 197 126 196.4" class="st1"/><polygon points="157 165.4 157.6 165.5 162.6 160.6 162 160.4 161.8 159.9 156.9 164.8" class="st1"/><polygon points="113.6 180.9 113.3 180.4 66.6 180.4 64.6 180.9 66.6 181.4 113.3 181.4" class="st1"/><polygon points="169.4 180.9 169.8 181.4 216.5 181.4 218.5 180.9 216.5 180.4 169.8 180.4" class="st1"/><polygon points="113.3 180.4 113.3 180.4 113.6 180.9 113.3 181.4 113.3 181.4 113.6 180.9" class="st1"/><polygon points="140.8 180.9 140.3 180.4 120.3 180.4 120.6 180.9 120.3 181.4 140.3 181.4" class="st1"/><polygon points="162.8 180.4 142.8 180.4 142.2 180.9 142.8 181.4 162.8 181.4 162.5 180.9" class="st1"/><polygon points="169.8 180.4 169.8 180.4 169.4 180.9" class="st1"/><polygon points="162.5 180.9 162.8 181.4 169.8 181.4 169.4 180.9 169.8 180.4 162.8 180.4" class="st1"/><polygon points="120.3 180.4 113.3 180.4 113.6 180.9 113.3 181.4 120.3 181.4 120.6 180.9" class="st1"/><polygon points="142 181.4 142.8 181.4 142.2 180.9 142 181.1" class="st1"/><polygon points="141 180.4 140.3 180.4 140.8 180.9 141 180.7" class="st1"/><polygon points="140.8 180.9 140.3 181.4 141 181.4 141 181.1" class="st1"/><polygon points="142 180.7 142.2 180.9 142.8 180.4 142 180.4" class="st1"/><polygon points="141 180.7 140.8 180.9 141 181.1" class="st1"/><polygon points="142 181.1 142.2 180.9 142 180.7" class="st1"/><path d="M216.5,181.4h4.4c0.3,0,0.5-0.2,0.5-0.5c0-0.3-0.2-0.5-0.5-0.5h-4.4l2,0.5L216.5,181.4z" class="st1"/><path d="M66.6,180.4h-4.4c-0.3,0-0.5,0.2-0.5,0.5s0.2,0.5,0.5,0.5h4.4l-2-0.5L66.6,180.4z" class="st1"/><polygon points="141.5 208.8 141 209.1 141 255.9 141.5 257.9 142 255.9 142 209.1" class="st1"/><polygon points="141.5 153 142 152.7 142 105.9 141.5 103.9 141 105.9 141 152.7" class="st1"/><polygon points="141 182.1 141 202.1 141.5 201.8 142 202.1 142 182.1 141.5 181.6" class="st1"/><polygon points="142 152.7 141.5 153 142 152.7" class="st1"/><polygon points="142 179.7 142 159.7 141.5 160 141 159.7 141 179.7 141.5 180.2" class="st1"/><polygon points="141 152.7 141 152.7 141.5 153" class="st1"/><polygon points="141 202.1 141 209.1 141.5 208.8 142 209.1 142 202.1 141.5 201.8" class="st1"/><polygon points="141.5 160 142 159.7 142 152.7 141.5 153 141 152.7 141 159.7" class="st1"/><polygon points="141.8 181.4 141.5 181.6 142 182.1 142 181.4" class="st1"/><polygon points="141.5 180.2 141 179.7 141 180.4 141.3 180.4" class="st1"/><polygon points="141.8 180.4 142 180.4 142 179.7 141.5 180.2" class="st1"/><polygon points="141.3 181.4 141 181.4 141 182.1 141.5 181.6" class="st1"/><polygon points="141.5 181.6 141.8 181.4 141.3 181.4" class="st1"/><polygon points="141.3 180.4 141.8 180.4 141.5 180.2" class="st1"/><path d="M141,255.9v2.9c0,0.3,0.2,0.5,0.5,0.5s0.5-0.2,0.5-0.5v-2.9l-0.5,2L141,255.9z" class="st1"/><path d="M142,105.9V103c0-0.3-0.2-0.5-0.5-0.5s-0.5,0.2-0.5,0.5v2.9l0.5-2L142,105.9z" class="st1"/><polygon points="141.8 181.4 142 181.4 142 181.1" class="st1"/><polygon points="141.3 180.4 141 180.4 141 180.7" class="st1"/><polygon points="141 181.4 141.3 181.4 141 181.1" class="st1"/><polygon points="142 180.7 142 180.4 141.8 180.4" class="st1"/><polygon points="142 180.7 141.8 180.4 141.3 180.4 141 180.7 141 181.1 141.3 181.4 141.8 181.4 142 181.1" class="st1"/><g class="st2"><path d="M303.8,135.6h17l36,84.6h-19.3l-7.7-18.8h-35.5l-7.7,18.8h-18.8L303.8,135.6z M323.3,185l-11.2-27.2L300.9,185 H323.3z" class="st1"/></g><g class="st2"><path d="M361.8,188.4v-0.2c0-18.5,14.9-33.5,34.9-33.5c19.9,0,34.7,14.8,34.7,33.2v0.2c0,18.5-14.9,33.5-34.9,33.5 C376.5,221.6,361.8,206.9,361.8,188.4z M413.4,188.4v-0.2c0-9.5-6.8-17.8-16.9-17.8c-10.4,0-16.7,8-16.7,17.5v0.2 c0,9.5,6.8,17.8,16.9,17.8C407.1,205.9,413.4,197.9,413.4,188.4z" class="st1"/></g><g class="st2"><path d="M440,207.3l33.2-36.7h-32.2v-14.8h54.8v12.8l-33.4,36.7h33.4v14.8H440V207.3z" class="st1"/><path d="M505.9,201.7v-0.2c0-14,10.7-20.5,25.9-20.5c6.5,0,11.2,1.1,15.7,2.6v-1.1c0-7.6-4.7-11.8-13.8-11.8 c-7,0-11.9,1.3-17.8,3.5l-4.6-13.9c7.1-3.1,14-5.2,25-5.2c10,0,17.2,2.6,21.7,7.2c4.8,4.8,7,11.9,7,20.5v37.3h-17.6v-7 c-4.4,4.9-10.6,8.2-19.4,8.2C515.9,221.4,505.9,214.4,505.9,201.7z M547.8,197.5v-3.2c-3.1-1.4-7.2-2.4-11.6-2.4 c-7.8,0-12.6,3.1-12.6,8.9v0.2c0,4.9,4.1,7.8,10,7.8C542,208.8,547.8,204.1,547.8,197.5z" class="st1"/><path d="M580.8,132.6H599v46.7l21.4-23.4h21.8l-24.5,25.3l25.3,39h-20.9l-16.8-26.3l-6.4,6.7v19.6h-18.2V132.6z" class="st1"/><path d="M652.2,132.6h19.2v16.2h-19.2V132.6z M652.7,155.9h18.2v64.3h-18.2V155.9z" class="st1"/></g><g class="st2"><path d="M683.6,167.3c8.3-0.8,12.4-5,11.8-11.9h-7.4v-19.2h19.4v16.2c0,15.8-7.9,22.2-22.2,22.4L683.6,167.3z" class="st1"/></g><g class="st2"><path d="M715.5,211.7l7.8-12c7,5,14.3,7.7,20.3,7.7c5.3,0,7.7-1.9,7.7-4.8v-0.2c0-4-6.2-5.3-13.3-7.4 c-9-2.6-19.2-6.8-19.2-19.3v-0.2c0-13.1,10.6-20.4,23.5-20.4c8.2,0,17,2.8,24,7.4l-7,12.6c-6.4-3.7-12.7-6-17.4-6 c-4.4,0-6.7,1.9-6.7,4.4v0.2c0,3.6,6.1,5.3,13.1,7.7c9,3,19.4,7.3,19.4,19.1v0.2c0,14.3-10.7,20.8-24.6,20.8 C734.1,221.4,724.1,218.4,715.5,211.7z" class="st1"/><path d="M835.1,211.8v8.4h-18.2v-87.6h18.2v32.5c4.4-6,10.6-10.4,20-10.4c15,0,29.3,11.8,29.3,33.2v0.2 c0,21.5-14,33.2-29.3,33.2C845.4,221.4,839.4,216.9,835.1,211.8z M866.1,188.1v-0.2c0-10.7-7.2-17.8-15.7-17.8s-15.6,7.1-15.6,17.8 v0.2c0,10.7,7.1,17.8,15.6,17.8S866.1,198.9,866.1,188.1z" class="st1"/><path d="M898.7,132.6h18.2v87.6h-18.2V132.6z" class="st1"/><path d="M930.9,188.4v-0.2c0-18.5,14.9-33.5,34.9-33.5c19.9,0,34.7,14.8,34.7,33.2v0.2c0,18.5-14.9,33.5-34.9,33.5 C945.7,221.6,930.9,206.9,930.9,188.4z M982.5,188.4v-0.2c0-9.5-6.8-17.8-16.9-17.8c-10.4,0-16.7,8-16.7,17.5v0.2 c0,9.5,6.8,17.8,16.9,17.8C976.3,205.9,982.5,197.9,982.5,188.4z" class="st1"/><path d="M1014.1,232.9l6.2-13.7c6.6,3.7,13.2,5.9,21.7,5.9c12.5,0,18.4-6,18.4-17.5v-3.1c-5.4,6.5-11.3,10.4-21,10.4 c-15,0-28.6-10.9-28.6-30v-0.2c0-19.2,13.8-30,28.6-30c10,0,15.8,4.2,20.8,9.6v-8.4h18.2v49.8c0,11.5-2.8,19.9-8.2,25.3 c-6,6-15.2,8.6-27.7,8.6C1032.1,239.6,1022.3,237.2,1014.1,232.9z M1060.4,184.9v-0.2c0-8.8-6.8-14.9-15.7-14.9 s-15.6,6.1-15.6,14.9v0.2c0,8.9,6.7,14.9,15.6,14.9S1060.4,193.7,1060.4,184.9z" class="st1"/></g></svg>